# xmcd CD database file
# Copyright (C) 1997 Ti Kan
#
# Track frame offsets:
#  150
#  16165
#  38092
#  54862
#  70612
#  92592
#  109052
#  128695
#  145777
#  165047
#
# Disc length: 2517 seconds
#
# Revision: 1
# Processed by: cddbd v1.4b41PL1 Copyright (c) Steve Scherf et al.
# Submitted via: CDWizzard Release:4.35
#
DISCID=6a09d30a
DTITLE=Clarence Carter - Have You Met Clarence Carter...Yet?
DYEAR=1900
DGENRE=
TTITLE0=I Can't Stand It
TTITLE1="G" Spot
TTITLE2=Cheater
TTITLE3=It's Too Late
TTITLE4=I Wouldn't Do That
TTITLE5=Let's Get A Quickie
TTITLE6=Hot Dog
TTITLE7=Hand Me Down Love
TTITLE8=Did You Bring It All Back 
TTITLE9=How Did You Feel
EXTD=
EXTT0=
EXTT1=
EXTT2=
EXTT3=
EXTT4=
EXTT5=
EXTT6=
EXTT7=
EXTT8=
EXTT9=
PLAYORDER=
